<svg width="30" height="32" viewBox="0 0 30 32" fill="none" xmlns="http://www.w3.org/2000/svg">
<path d="M9.92173 22.1863C12.1697 24.4343 17.6368 22.6119 22.1328 18.1159C26.6288 13.6199 28.4511 8.15286 26.2031 5.90484M9.92173 22.1863C10.7647 23.0293 10.7644 24.396 9.92138 25.239L5.85103 29.3094C5.00803 30.1524 3.64126 30.1524 2.79826 29.3094C1.95527 28.4664 1.95527 27.0996 2.79826 26.2566L6.86862 22.1863C7.71162 21.3433 9.07873 21.3433 9.92173 22.1863ZM16.5357 4.37827L17.5533 5.39586M12.9745 7.9398L13.9921 8.95738M9.92137 12.0104L10.9389 13.028M8.90386 17.0982L9.92144 18.1157M22.1325 2.85205L23.1501 3.86964M21.115 8.95767L23.1503 10.9928M17.5539 12.5192L19.589 14.5543M13.4833 15.5719L15.5184 17.6072" stroke="#4F772D" stroke-width="4" stroke-linecap="round" stroke-linejoin="round"/>
</svg>
