<svg width="26" height="32" viewBox="0 0 26 32" fill="none" xmlns="http://www.w3.org/2000/svg">
<path fill-rule="evenodd" clip-rule="evenodd" d="M13.491 30.3775L13.4743 30.3803L13.3757 30.4289L13.348 30.4345L13.3285 30.4289L13.2299 30.3789C13.2151 30.3752 13.204 30.378 13.1966 30.3873L13.191 30.4012L13.1674 30.9956L13.1743 31.0234L13.1882 31.0414L13.3327 31.1442L13.3535 31.1498L13.3702 31.1442L13.5146 31.0414L13.5313 31.0192L13.5368 30.9956L13.5132 30.4025C13.5095 30.3877 13.5021 30.3794 13.491 30.3775ZM13.8577 30.2206L13.8382 30.2234L13.5827 30.3525L13.5688 30.3664L13.5646 30.3817L13.5896 30.9789L13.5966 30.9956L13.6077 31.0067L13.8868 31.1345C13.9044 31.1391 13.9179 31.1354 13.9271 31.1234L13.9327 31.1039L13.8855 30.2512C13.8808 30.2336 13.8716 30.2234 13.8577 30.2206ZM12.8646 30.2234C12.8585 30.2197 12.8512 30.2185 12.8442 30.22C12.8372 30.2216 12.8311 30.2258 12.8271 30.2317L12.8188 30.2512L12.7716 31.1039C12.7725 31.1206 12.7804 31.1317 12.7952 31.1373L12.816 31.1345L13.0952 31.0053L13.1091 30.9942L13.1132 30.9789L13.1382 30.3817L13.1341 30.365L13.1202 30.3512L12.8646 30.2234Z" fill="#4F772D"/>
<path fill-rule="evenodd" clip-rule="evenodd" d="M20.9993 10.5748C22.0621 10.5747 23.0848 10.9808 23.858 11.7099C24.6313 12.439 25.0967 13.436 25.1591 14.497L25.166 14.7414V18.9081C25.166 19.797 24.6396 20.49 23.941 20.8067L23.7771 20.872V25.8525C23.7773 26.5533 23.5127 27.2283 23.0362 27.7422C22.5596 28.2561 21.9065 28.5708 21.2077 28.6234L20.9993 28.6303H4.33268C3.63188 28.6305 2.9569 28.3659 2.44303 27.8894C1.92917 27.4128 1.61441 26.7597 1.56185 26.0609L1.5549 25.8525V20.8734C1.18004 20.7426 0.850704 20.5068 0.606165 20.1941C0.361626 19.8813 0.212209 19.5048 0.175738 19.1095L0.166016 18.9081V14.7414C0.165956 13.6786 0.572023 12.656 1.30113 11.8827C2.03024 11.1095 3.02728 10.6441 4.08824 10.5817L4.33268 10.5748H20.9993ZM20.9063 19.8803C20.6908 19.7186 20.433 19.6231 20.1642 19.6053C19.8954 19.5876 19.6273 19.6484 19.3924 19.7803L19.2396 19.8803L18.8702 20.1581C18.1886 20.6695 17.3667 20.9597 16.5151 20.9895C15.6635 21.0193 14.8233 20.7873 14.1077 20.3248L13.8702 20.1581L13.4993 19.8803C13.2839 19.7186 13.0261 19.6231 12.7573 19.6053C12.4885 19.5876 12.2203 19.6484 11.9855 19.7803L11.8327 19.8803L11.4618 20.1581C10.7804 20.6692 9.95874 20.9592 9.10746 20.989C8.25618 21.0188 7.41622 20.787 6.70074 20.3248L6.46185 20.1581L6.0924 19.8803C5.87694 19.7186 5.61911 19.6231 5.35032 19.6053C5.08153 19.5876 4.81337 19.6484 4.57852 19.7803L4.42574 19.8803L4.33268 19.9498V25.8525H20.9993V19.9498L20.9063 19.8803ZM20.9993 13.3525H4.33268C3.96433 13.3525 3.61106 13.4989 3.35059 13.7593C3.09012 14.0198 2.94379 14.3731 2.94379 14.7414V17.5262C3.66129 17.0468 4.50989 16.8021 5.37243 16.8257C6.23497 16.8494 7.0689 17.1402 7.75907 17.6581L8.12852 17.9359C8.36893 18.1162 8.66133 18.2137 8.96185 18.2137C9.26236 18.2137 9.55477 18.1162 9.79518 17.9359L10.166 17.6581C10.8872 17.1172 11.7645 16.8248 12.666 16.8248C13.5676 16.8248 14.4448 17.1172 15.166 17.6581L15.5368 17.9359C15.7773 18.1162 16.0697 18.2137 16.3702 18.2137C16.6707 18.2137 16.9631 18.1162 17.2035 17.9359L17.573 17.6581C18.2631 17.1402 19.0971 16.8494 19.9596 16.8257C20.8221 16.8021 21.6707 17.0468 22.3882 17.5262V14.7414C22.3882 14.3731 22.2419 14.0198 21.9814 13.7593C21.721 13.4989 21.3677 13.3525 20.9993 13.3525ZM13.4993 1.13032C14.0728 1.5797 14.6058 2.07836 15.0924 2.62059C15.8202 3.43865 16.8327 4.81782 16.8327 6.40809C16.8327 7.51316 16.3937 8.57297 15.6123 9.35437C14.8309 10.1358 13.7711 10.5748 12.666 10.5748C11.5609 10.5748 10.5011 10.1358 9.71974 9.35437C8.93833 8.57297 8.49935 7.51316 8.49935 6.40809C8.49935 4.81782 9.51324 3.43865 10.2396 2.62059C10.7262 2.07836 11.2592 1.5797 11.8327 1.13032C12.0731 0.950008 12.3655 0.852539 12.666 0.852539C12.9665 0.852539 13.2589 0.950008 13.4993 1.13032ZM12.666 4.09421C12.5451 4.21465 12.4279 4.33879 12.3146 4.46643C11.6535 5.21087 11.2771 5.91504 11.2771 6.40809C11.2771 6.77645 11.4235 7.12972 11.6839 7.39019C11.9444 7.65065 12.2977 7.79698 12.666 7.79698C13.0344 7.79698 13.3876 7.65065 13.6481 7.39019C13.9086 7.12972 14.0549 6.77645 14.0549 6.40809C14.0549 5.91504 13.6799 5.21087 13.0174 4.46643C12.9041 4.33879 12.7869 4.21465 12.666 4.09421Z" fill="#4F772D"/>
</svg>
