<svg width="20" height="20" viewBox="0 0 20 20" fill="none" xmlns="http://www.w3.org/2000/svg">
<path d="M2.7505 0.649414C2.02115 0.649414 1.32168 0.939145 0.805956 1.45487C0.290231 1.9706 0.000499964 2.67007 0.000499964 3.39941V8.64941C0.796149 7.58855 1.98064 6.8872 3.29339 6.69967C4.60615 6.51213 5.93963 6.85376 7.0005 7.64941C8.06137 8.44506 8.76271 9.62955 8.95025 10.9423C9.13778 12.2551 8.79615 13.5885 8.0005 14.6494V15.6494H17.2505C17.9798 15.6494 18.6793 15.3597 19.195 14.844C19.7108 14.3282 20.0005 13.6288 20.0005 12.8994V3.39941C20.0005 2.67007 19.7108 1.9706 19.195 1.45487C18.6793 0.939145 17.9798 0.649414 17.2505 0.649414H2.7505ZM4.7505 4.64941H15.2505C15.4494 4.64941 15.6402 4.72843 15.7808 4.86908C15.9215 5.00974 16.0005 5.2005 16.0005 5.39941C16.0005 5.59833 15.9215 5.78909 15.7808 5.92974C15.6402 6.0704 15.4494 6.14941 15.2505 6.14941H4.7505C4.55159 6.14941 4.36082 6.0704 4.22017 5.92974C4.07952 5.78909 4.0005 5.59833 4.0005 5.39941C4.0005 5.2005 4.07952 5.00974 4.22017 4.86908C4.36082 4.72843 4.55159 4.64941 4.7505 4.64941ZM10.0005 10.3994C10.0005 10.2005 10.0795 10.0097 10.2202 9.86908C10.3608 9.72843 10.5516 9.64941 10.7505 9.64941H15.2505C15.4494 9.64941 15.6402 9.72843 15.7808 9.86908C15.9215 10.0097 16.0005 10.2005 16.0005 10.3994C16.0005 10.5983 15.9215 10.7891 15.7808 10.9297C15.6402 11.0704 15.4494 11.1494 15.2505 11.1494H10.7505C10.5516 11.1494 10.3608 11.0704 10.2202 10.9297C10.0795 10.7891 10.0005 10.5983 10.0005 10.3994ZM4.0005 7.64941C2.9395 7.64941 1.92196 8.07089 1.17172 8.82113C0.42148 9.57137 0 10.5889 0 11.6499C0 12.7109 0.42148 13.7285 1.17172 14.4787C1.92196 15.2289 2.9395 15.6504 4.0005 15.6504C5.0615 15.6504 6.07904 15.2289 6.82928 14.4787C7.57952 13.7285 8.001 12.7109 8.001 11.6499C8.001 10.5889 7.57952 9.57137 6.82928 8.82113C6.07904 8.07089 5.0615 7.64941 4.0005 7.64941ZM7.0005 15.6504C6.1655 16.2784 5.1265 16.6504 4.0005 16.6504C2.91864 16.6524 1.86555 16.3021 1.0005 15.6524V18.8984C1.0005 19.4684 1.6055 19.8184 2.0905 19.5674L2.1805 19.5124L4.0005 18.2414L5.8205 19.5134C5.92561 19.5868 6.04777 19.632 6.17533 19.6448C6.30289 19.6575 6.43159 19.6373 6.54914 19.5862C6.66668 19.535 6.76916 19.4546 6.84678 19.3526C6.92439 19.2506 6.97456 19.1303 6.9925 19.0034L7.0005 18.8984V15.6504Z" fill="#4F772D"/>
</svg>
