<svg width="36" height="36" viewBox="0 0 36 36" fill="none" xmlns="http://www.w3.org/2000/svg">
    <path d="M29.9553 10.3613C30.386 9.59943 30.6892 8.80996 30.8287 8.03612C31.3879 4.948 29.5642 1.40022 26.3463 0.0607341C25.752 -0.187199 25.4213 0.367589 25.7684 0.935626C26.6143 2.31478 27.3043 4.87337 26.0485 6.62924C25.9343 6.79052 25.8101 6.93609 25.6838 7.07573L24.1348 5.88436H11.8652L10.3162 7.07581C10.1898 6.93617 10.0657 6.7906 9.9514 6.62932C8.69569 4.87345 9.38559 2.31486 10.2315 0.935703C10.5787 0.367666 10.248 -0.187122 9.65363 0.060811C6.43577 1.40022 4.61208 4.94808 5.17127 8.0362C5.31077 8.81004 5.61403 9.59951 6.0447 10.3613L0 15.0103C0 15.0103 4.49888 19.9385 8.39355 16.5315C8.39355 18.9649 9.36584 21.7642 11.5324 23.4057L12.698 28.4951C11.2533 28.9669 10.1997 30.4315 10.1997 32.1669C10.1997 34.2838 11.7653 36 13.6978 36H22.3023C24.2348 36 25.8015 34.2839 25.8015 32.1669C25.8015 30.4315 24.7468 28.9669 23.3021 28.4951L24.4688 23.4057C26.6342 21.7641 27.6064 18.9649 27.6064 16.5315C31.5011 19.9385 36 15.0103 36 15.0103L29.9553 10.3613Z" fill="#1E1E1E" fill-opacity="0.3"/>
</svg>
