<svg width="24" height="18" viewBox="0 0 24 18" fill="none" xmlns="http://www.w3.org/2000/svg">
<path fill-rule="evenodd" clip-rule="evenodd" d="M10.7904 12.1239H13.6789C13.6793 12.3515 13.7096 12.5716 13.7696 12.7842C13.6425 12.8367 13.5413 12.9374 13.4883 13.0643C13.4352 13.1912 13.4346 13.334 13.4866 13.4613L13.5085 13.5156C13.5665 13.6574 13.6785 13.7704 13.8198 13.8296C13.961 13.8889 14.1201 13.8896 14.2619 13.8316L14.326 13.8051C14.5259 14.0373 14.7662 14.2441 15.0383 14.4174C14.8875 14.6988 14.9903 15.0529 15.2717 15.2043C15.4067 15.2767 15.5649 15.2926 15.7116 15.2484C15.8583 15.2042 15.9814 15.1035 16.0539 14.9686L16.1019 14.8796C16.4833 14.9793 16.8771 15.0234 17.2711 15.0107L17.2862 15.0887C17.299 15.1647 17.3269 15.2373 17.3682 15.3023C17.4095 15.3673 17.4634 15.4233 17.5267 15.4672C17.59 15.5111 17.6615 15.5418 17.7368 15.5577C17.8122 15.5735 17.89 15.5742 17.9656 15.5595C18.0412 15.5449 18.1131 15.5153 18.1771 15.4725C18.2411 15.4296 18.2959 15.3744 18.3383 15.3101C18.3806 15.2458 18.4097 15.1736 18.4238 15.0979C18.4378 15.0222 18.4366 14.9444 18.4202 14.8692L18.4098 14.8143C18.913 14.6544 19.3738 14.3836 19.7582 14.0217L19.9378 16.176C19.7951 16.2001 19.6665 16.277 19.5778 16.3914C19.489 16.5058 19.4464 16.6494 19.4585 16.7937C19.4705 16.938 19.5364 17.0725 19.6429 17.1706C19.7494 17.2687 19.8889 17.3232 20.0337 17.3233H21.7669V6.92454C21.7696 6.14027 21.5115 5.37734 21.0332 4.75582C21.3943 4.85288 21.6461 4.99442 21.8246 5.166C22.1464 5.47507 22.3446 5.99559 22.3446 6.92454L22.5682 10.0557C22.4318 10.2666 22.3446 10.597 22.3446 10.9685C22.3446 11.6069 22.6028 12.1239 22.9223 12.1239C23.2418 12.1239 23.5 11.6069 23.5 10.9685C23.5 10.597 23.4122 10.2666 23.2764 10.0557L23.5 6.92454C23.5 5.86502 23.2787 4.96033 22.6253 4.33236C21.98 3.71248 21.0332 3.47909 19.8679 3.45944C19.824 3.45829 18.6218 3.45829 18.5895 3.45829V3.46233C18.536 3.45974 18.4824 3.4584 18.4289 3.45829H9.92384C8.80597 3.45829 7.96252 3.29191 7.25425 3.07238L7.16644 2.95337C7.5535 2.85516 7.94345 2.69802 8.22364 2.4912C8.95676 1.95162 9.38311 0.866108 8.44375 0.985116C8.17107 1.01978 7.9735 1.02671 7.81289 1.03249C7.42063 1.04578 7.24674 1.05213 6.7268 1.43515C6.51478 1.59113 6.32876 1.75867 6.1774 1.92447C5.36918 1.32365 4.29291 1.05502 2.41363 1.14745C2.33702 1.14745 2.26355 1.17788 2.20937 1.23206C2.1552 1.28623 2.12477 1.3597 2.12477 1.43631C2.12477 1.51292 2.1552 1.58639 2.20937 1.64056C2.26355 1.69473 2.33702 1.72516 2.41363 1.72516H3.41711C3.58175 1.83146 3.72329 1.93083 3.84865 2.02557L1.77815 4.61371H1.65567C1.47551 4.61367 1.29784 4.65576 1.13685 4.73661C0.975856 4.81747 0.836001 4.93485 0.728455 5.07939C0.620909 5.22393 0.548652 5.39161 0.517455 5.56905C0.486258 5.74648 0.496986 5.92876 0.548781 6.10131L0.722094 6.67902C0.793536 6.91702 0.939807 7.12565 1.1392 7.27395C1.3386 7.42224 1.58049 7.50231 1.82898 7.50225H3.77066C4.01501 7.50225 4.25307 7.57971 4.45063 7.72351L5.71581 8.64323C5.75432 8.67096 5.79342 8.69599 5.83308 8.71833C6.73835 11.0523 7.69331 12.8697 8.76207 13.7843L8.96138 16.176C8.81859 16.2001 8.69008 16.277 8.6013 16.3914C8.51252 16.5058 8.46994 16.6494 8.48201 16.7937C8.49407 16.938 8.55989 17.0725 8.66643 17.1706C8.77297 17.2687 8.91246 17.3232 9.05728 17.3233H10.7904V12.1239ZM16.4577 12.1239H14.8344C14.8344 12.8923 15.6628 13.857 17.1452 13.857C17.6946 13.857 18.1545 13.7242 18.5155 13.5185C17.6894 13.1892 17.0481 12.6993 16.4577 12.1239Z" fill="#4F772D"/>
</svg>
