<svg width="24" height="42" viewBox="0 0 24 42" fill="none" xmlns="http://www.w3.org/2000/svg">
    <path d="M22.2353 10.6133C24.8284 5.11622 22.7592 0.0758894 21.5048 0.000666775C20.2504 -0.075048 16.1492 6.32273 16.1492 6.32273H7.87213C7.87213 6.32273 3.77038 -0.0745559 2.51656 0.000666775C1.26204 0.0752332 -0.807012 5.11613 1.78605 10.6133C3.4902 14.2261 -0.244091 17.9772 0.494471 21.678C1.28751 25.6575 5.68121 34.3221 5.68121 35.2258C5.68121 36.1289 4.9507 39.2903 6.65485 40.6448C8.35891 42 12.0103 42 12.0103 42C12.0103 42 15.6624 42 17.3665 40.6448C19.0707 39.2902 18.3402 36.1289 18.3402 35.2258C18.3402 34.3221 23.0685 24.8186 23.5268 21.678C24.1702 17.2796 20.5312 14.2261 22.2353 10.6133ZM9.39374 39.2902C8.99046 39.2902 8.66323 38.7342 8.66323 38.048C8.66323 37.3624 8.99046 36.8064 9.39374 36.8064C9.7965 36.8064 10.1237 37.3624 10.1237 38.048C10.1237 38.7343 9.7965 39.2902 9.39374 39.2902ZM11.9733 31.3869C10.7237 27.2467 9.47422 16.3054 8.89653 10.7659C9.90351 11.8657 11.4227 12.7705 12.9475 13.097L12.7038 10.3879L15.0055 11.2003C14.4092 16.8596 13.1918 27.3523 11.9733 31.3869ZM14.6275 39.2902C14.2242 39.2902 13.897 38.7342 13.897 38.048C13.897 37.3624 14.2242 36.8064 14.6275 36.8064C15.0309 36.8064 15.3581 37.3624 15.3581 38.048C15.3581 38.7343 15.0309 39.2902 14.6275 39.2902ZM15.3481 7.80586L15.149 7.45189H15.3816C15.3816 7.45189 15.3704 7.57756 15.3481 7.80586Z" fill="#1E1E1E"/>
</svg>
