<svg width="18" height="18" viewBox="0 0 18 18" fill="none" xmlns="http://www.w3.org/2000/svg">
<path d="M8.72363 17.6719C8.17363 17.6719 7.61963 17.6096 7.06163 17.4849C6.50363 17.3602 5.93263 17.1809 5.34863 16.9469C5.54863 14.9302 6.13197 13.0469 7.09863 11.2969C8.0653 9.54689 9.30697 8.00522 10.8236 6.67189C8.9903 7.60522 7.40297 8.83855 6.06163 10.3719C4.7203 11.9052 3.78263 13.6552 3.24863 15.6219C3.18197 15.5719 3.11963 15.5179 3.06163 15.4599L2.87363 15.2719C2.0903 14.4886 1.49463 13.6136 1.08663 12.6469C0.678633 11.6802 0.474299 10.6719 0.473633 9.62189C0.473633 8.48855 0.698633 7.40522 1.14863 6.37189C1.59863 5.33855 2.22363 4.42189 3.02363 3.62189C4.1903 2.45522 5.6363 1.63855 7.36163 1.17189C9.08697 0.705219 11.416 0.538553 14.3486 0.671886C14.782 0.688553 15.182 0.784553 15.5486 0.959886C15.9153 1.13522 16.2403 1.36422 16.5236 1.64689C16.807 1.92955 17.032 2.25889 17.1986 2.63489C17.3653 3.01089 17.4653 3.41489 17.4986 3.84689C17.5986 6.84689 17.4236 9.18855 16.9736 10.8719C16.5236 12.5552 15.7236 13.9719 14.5736 15.1219C13.757 15.9386 12.8443 16.5679 11.8356 17.0099C10.827 17.4519 9.78963 17.6726 8.72363 17.6719Z" fill="#4F772D"/>
</svg>
