<svg width="12" height="10" viewBox="0 0 12 10" fill="none" xmlns="http://www.w3.org/2000/svg">
    <path d="M1.2 9.5C0.87 9.5 0.5876 9.38994 0.3528 9.16981C0.118 8.94969 0.0004 8.68475 0 8.375V1.625C0 1.31562 0.1176 1.05087 0.3528 0.83075C0.588 0.610625 0.8704 0.500375 1.2 0.5H10.8C11.13 0.5 11.4126 0.61025 11.6478 0.83075C11.883 1.05125 12.0004 1.316 12 1.625V8.375C12 8.68437 11.8826 8.94931 11.6478 9.16981C11.413 9.39031 11.1304 9.50037 10.8 9.5H1.2ZM6 5.46406C6.05 5.46406 6.1026 5.45694 6.1578 5.44269C6.213 5.42844 6.2654 5.40744 6.315 5.37969L10.56 2.89062C10.64 2.84375 10.7 2.78525 10.74 2.71512C10.78 2.645 10.8 2.56756 10.8 2.48281C10.8 2.29531 10.715 2.15469 10.545 2.06094C10.375 1.96719 10.2 1.97187 10.02 2.075L6 4.4375L1.98 2.075C1.8 1.97187 1.625 1.96962 1.455 2.06825C1.285 2.16687 1.2 2.30506 1.2 2.48281C1.2 2.57656 1.22 2.65869 1.26 2.72919C1.3 2.79969 1.36 2.8535 1.44 2.89062L5.685 5.37969C5.735 5.40781 5.7876 5.429 5.8428 5.44325C5.898 5.4575 5.9504 5.46444 6 5.46406Z" fill="white"/>
</svg>
