<svg width="12" height="12" viewBox="0 0 12 12" fill="none" xmlns="http://www.w3.org/2000/svg">
    <path fill-rule="evenodd" clip-rule="evenodd" d="M1.47453 0H3.58728C3.67321 0 3.75709 0.0263871 3.82774 0.0756407C3.89838 0.124894 3.95244 0.194672 3.98268 0.275664L4.80278 2.47076C4.82981 2.54335 4.83662 2.622 4.82249 2.69821L4.41132 4.91714C4.91655 6.11281 5.75073 6.91655 7.13351 7.63747L9.31048 7.21207C9.38784 7.19705 9.46783 7.20413 9.54141 7.23249L11.728 8.07195C11.8079 8.10262 11.8767 8.157 11.9253 8.22789C11.9738 8.29879 11.9999 8.38286 12 8.469V10.5019C12 11.4242 11.1934 12.1723 10.2494 11.9653C8.52981 11.5887 5.3435 10.6306 3.1119 8.38335C0.973795 6.23079 0.25734 3.25748 0.016832 1.65058C-0.121165 0.732834 0.609372 0 1.47453 0Z" fill="white"/>
</svg>
