<svg width="30" height="30" viewBox="0 0 30 30" fill="none" xmlns="http://www.w3.org/2000/svg">
<path d="M25.0552 22.2965C25.7497 20.5715 27.833 19.5187 27.833 15.3521C27.833 11.1854 26.4441 2.85205 15.333 2.85205C4.2219 2.85205 2.83301 11.1854 2.83301 15.3521C2.83301 19.5187 4.9094 20.559 5.61079 22.2965L2.83301 23.6854L5.61079 27.852L8.95245 26.259C10.6886 25.2673 11.4219 23.3701 10.6233 21.5882C9.12606 18.2451 8.38856 9.79649 15.333 9.79649C22.2775 9.79649 21.54 18.2451 20.0413 21.5882C19.2441 23.3715 19.9788 25.2673 21.7136 26.259L25.0552 27.852L27.833 23.6854L25.0552 22.2965Z" stroke="#4F772D" stroke-width="4" stroke-linecap="round" stroke-linejoin="round"/>
</svg>
