<svg width="35" height="29" viewBox="0 0 35 29" fill="none" xmlns="http://www.w3.org/2000/svg">
<path d="M2.5 12.602C2.5 7.14955 11.5 2.85205 17.5 2.85205C23.5 2.85205 27.8125 4.60705 31 8.85205C31.8357 9.96632 32.3446 11.2913 32.4697 12.6785C32.5948 14.0657 32.3311 15.4604 31.7082 16.7061C31.0853 17.9519 30.1278 18.9997 28.943 19.7319C27.7582 20.4642 26.3928 20.852 25 20.852C23.5252 20.8522 22.0831 20.4176 20.854 19.6025C17.5 17.102 13.486 16.3025 11.5 16.352H6.25C5.25544 16.352 4.30161 15.957 3.59835 15.2537C2.89509 14.5504 2.5 13.5966 2.5 12.602ZM2.5 12.602V13.352C2.5 17.594 2.5 19.7165 3.8185 21.0335C5.1355 22.352 7.258 22.352 11.5 22.352C13.486 22.304 17.5 23.102 20.854 25.6025C21.9841 26.3522 23.2962 26.7814 24.6508 26.8446C26.0055 26.9077 27.3519 26.6024 28.5468 25.9611C29.7416 25.3198 30.7403 24.3665 31.4364 23.2027C32.1325 22.0389 32.5001 20.7081 32.5 19.352V13.352M27.25 13.352C27.25 13.9488 27.0129 14.5211 26.591 14.943C26.169 15.365 25.5967 15.602 25 15.602C24.4033 15.602 23.831 15.365 23.409 14.943C22.987 14.5211 22.75 13.9488 22.75 13.352C22.75 12.7553 22.987 12.183 23.409 11.7611C23.831 11.3391 24.4033 11.102 25 11.102C25.5967 11.102 26.169 11.3391 26.591 11.7611C27.0129 12.183 27.25 12.7553 27.25 13.352Z" stroke="#4F772D" stroke-width="4" stroke-linecap="round" stroke-linejoin="round"/>
</svg>
