<svg width="20" height="21" viewBox="0 0 20 21" fill="none" xmlns="http://www.w3.org/2000/svg">
<path d="M10 0.860413C8.68678 0.860413 7.38642 1.11907 6.17317 1.62162C4.95991 2.12416 3.85752 2.86076 2.92893 3.78934C1.05357 5.66471 0 8.20825 0 10.8604C0 13.5126 1.05357 16.0561 2.92893 17.9315C3.85752 18.8601 4.95991 19.5967 6.17317 20.0992C7.38642 20.6018 8.68678 20.8604 10 20.8604C12.6522 20.8604 15.1957 19.8068 17.0711 17.9315C18.9464 16.0561 20 13.5126 20 10.8604C20 9.54719 19.7413 8.24683 19.2388 7.03358C18.7362 5.82032 17.9997 4.71793 17.0711 3.78934C16.1425 2.86076 15.0401 2.12416 13.8268 1.62162C12.6136 1.11907 11.3132 0.860413 10 0.860413ZM14.2 15.0604L9 11.8604V5.86041H10.5V11.0604L15 13.7604L14.2 15.0604Z" fill="#4F772D"/>
</svg>
