<svg width="30" height="30" viewBox="0 0 30 30" fill="none" xmlns="http://www.w3.org/2000/svg">
    <path fill-rule="evenodd" clip-rule="evenodd" d="M15.487 29.252L15.4718 29.2547L15.3736 29.3018L15.346 29.3071L15.3266 29.3018L15.2284 29.2547C15.2137 29.2502 15.2026 29.2524 15.1953 29.2614L15.1897 29.2749L15.1662 29.8507L15.1731 29.8776L15.187 29.8951L15.3308 29.9946L15.3515 30L15.3681 29.9946L15.5119 29.8951L15.5285 29.8735L15.5341 29.8507L15.5106 29.2762C15.5069 29.2618 15.499 29.2538 15.487 29.252ZM15.8535 29.1L15.8355 29.1026L15.5797 29.2278L15.5659 29.2412L15.5617 29.256L15.5866 29.8345L15.5935 29.8507L15.6046 29.8601L15.8826 29.9852C15.9001 29.9897 15.9134 29.9861 15.9227 29.9744L15.9282 29.9556L15.8812 29.1296C15.8766 29.1134 15.8673 29.1035 15.8535 29.1ZM14.8647 29.1026C14.8587 29.0991 14.8514 29.0979 14.8444 29.0994C14.8375 29.1009 14.8314 29.105 14.8274 29.1107L14.8191 29.1296L14.7721 29.9556C14.773 29.9718 14.7809 29.9825 14.7956 29.9879L14.8163 29.9852L15.0943 29.8601L15.1081 29.8493L15.1137 29.8345L15.1372 29.256L15.133 29.2399L15.1192 29.2264L14.8647 29.1026Z" fill="#4F772D"/>
    <path fill-rule="evenodd" clip-rule="evenodd" d="M12.7116 0.786854C13.2011 0.311235 13.8561 0.0313722 14.5473 0.00248186C15.2385 -0.0264085 15.9157 0.197771 16.4454 0.630793L16.6224 0.7882L19.2499 3.34304H22.9643C23.6618 3.34316 24.3336 3.59969 24.8449 4.06124C25.3563 4.52279 25.6695 5.15526 25.7218 5.83195L25.7301 6.03376V9.6474L28.3576 12.2036C28.8468 12.6799 29.1347 13.3174 29.1644 13.9901C29.1941 14.6629 28.9635 15.322 28.518 15.8374L28.3562 16.0083L25.7287 18.5644V22.1781C25.7289 22.8569 25.4654 23.5107 24.9909 24.0085C24.5165 24.5063 23.8662 24.8112 23.1704 24.8621L22.9643 24.8688H19.2513L16.6238 27.425C16.1342 27.901 15.4789 28.1811 14.7874 28.21C14.0959 28.2389 13.4183 28.0145 12.8886 27.581L12.713 27.425L10.0855 24.8688H6.36968C5.67191 24.869 4.99984 24.6126 4.4882 24.1511C3.97656 23.6895 3.66316 23.0568 3.61082 22.3799L3.60391 22.1781V18.5644L0.976425 16.0083C0.487152 15.5319 0.19924 14.8945 0.169541 14.2217C0.139842 13.5489 0.370515 12.8898 0.816011 12.3744L0.976425 12.2036L3.60391 9.6474V6.03376C3.60404 5.35515 3.86772 4.70166 4.34214 4.20418C4.81656 3.70671 5.46668 3.40201 6.16225 3.35111L6.36968 3.34304H10.0841L12.7116 0.786854ZM18.9249 10.047L13.0559 15.7567L10.611 13.3781C10.3515 13.1258 9.99964 12.9842 9.6328 12.9843C9.26596 12.9844 8.9142 13.1263 8.6549 13.3788C8.3956 13.6312 8.24999 13.9735 8.25012 14.3304C8.25025 14.6873 8.3961 15.0295 8.65559 15.2818L11.98 18.516C12.1213 18.6535 12.289 18.7626 12.4736 18.837C12.6582 18.9114 12.8561 18.9497 13.0559 18.9497C13.2558 18.9497 13.4536 18.9114 13.6382 18.837C13.8228 18.7626 13.9906 18.6535 14.1318 18.516L20.8803 11.9493C21.1322 11.6956 21.2716 11.3557 21.2684 11.003C21.2653 10.6502 21.1199 10.3128 20.8635 10.0634C20.6071 9.81391 20.2602 9.67243 19.8976 9.66936C19.535 9.66629 19.1857 9.8019 18.9249 10.047Z" fill="#4F772D"/>
</svg>
