<svg width="30" height="28" viewBox="0 0 30 28" fill="none" xmlns="http://www.w3.org/2000/svg">
<path d="M15 0.852539C16.85 0.852539 18.3333 2.33587 18.3333 4.18587C18.3333 6.03587 16.85 7.51921 15 7.51921C13.15 7.51921 11.6667 6.03587 11.6667 4.18587C11.6667 2.33587 13.1667 0.852539 15 0.852539ZM30 20.8525V17.5192C26.2667 17.5192 23.0667 15.9192 20.6667 13.0525L18.4333 10.3859C18.1232 10.01 17.7338 9.70745 17.2929 9.49997C16.852 9.29249 16.3706 9.18522 15.8833 9.18587H14.1667C13.15 9.18587 12.2167 9.61921 11.5833 10.3859L9.35 13.0525C6.93333 15.9192 3.73333 17.5192 0 17.5192V20.8525C4.61667 20.8525 8.65 18.9025 11.6667 15.4359V19.1859L5.2 21.7692C4.08333 22.2192 3.33333 23.3525 3.33333 24.5359C3.33333 26.1859 4.66667 27.5192 6.31667 27.5192H10V26.6859C10 25.5808 10.439 24.521 11.2204 23.7396C12.0018 22.9582 13.0616 22.5192 14.1667 22.5192H19.1667C19.6333 22.5192 20 22.8859 20 23.3525C20 23.8192 19.6333 24.1859 19.1667 24.1859H14.1667C12.7833 24.1859 11.6667 25.3025 11.6667 26.6859V27.5192H23.6833C25.3333 27.5192 26.6667 26.1859 26.6667 24.5359C26.6667 23.3525 25.9167 22.2192 24.8 21.7692L18.3333 19.1859V15.4359C21.35 18.9025 25.3833 20.8525 30 20.8525Z" fill="#4F772D"/>
</svg>
